<svg xmlns="http://www.w3.org/2000/svg" width="220" height="52" viewBox="0 0 220 52" role="img" aria-label="SmartBiz AI">
  <rect width="52" height="52" rx="14" fill="#2563EB"/>
  <path d="M14 17.5c0-4 3.4-7.5 8.6-7.5h14.8v7H22.7c-1.2 0-2 .7-2 1.7s.8 1.7 2 1.7h7.1c5.4 0 9.2 3.2 9.2 8.4 0 5.1-4 9.2-9.7 9.2H14v-7h15.1c1.7 0 2.8-.8 2.8-2.1 0-1.2-1-2-2.8-2H22c-4.8 0-8-3.5-8-9.4Z" fill="#fff"/>
  <text x="65" y="31" font-family="Arial, Helvetica, sans-serif" font-size="22" font-weight="700" fill="#172554">SmartBiz</text>
  <text x="171" y="31" font-family="Arial, Helvetica, sans-serif" font-size="16" font-weight="700" fill="#2563EB">AI</text>
</svg>
